<svg xmlns="http://www.w3.org/2000/svg" width="20" height="20" viewBox="0 0 20 20">
  <metadata><?xpacket begin="﻿" id="W5M0MpCehiHzreSzNTczkc9d"?>
<x:xmpmeta xmlns:x="adobe:ns:meta/" x:xmptk="Adobe XMP Core 5.6-c142 79.160924, 2017/07/13-01:06:39        ">
   <rdf:RDF xmlns:rdf="http://www.w3.org/1999/02/22-rdf-syntax-ns#">
      <rdf:Description rdf:about=""/>
   </rdf:RDF>
</x:xmpmeta>
                                                                                                    
                                                                                                    
                                                                                                    
                                                                                                    
                                                                                                    
                                                                                                    
                                                                                                    
                                                                                                    
                                                                                                    
                                                                                                    
                                                                                                    
                                                                                                    
                                                                                                    
                                                                                                    
                                                                                                    
                                                                                                    
                                                                                                    
                                                                                                    
                                                                                                    
                                                                                                    
                           
<?xpacket end="w"?></metadata>
<defs>
    <style>
      .cls-1 {
        fill: #fff;
        fill-rule: evenodd;
      }
    </style>
  </defs>
  <path id="Forma_1" data-name="Forma 1" class="cls-1" d="M996.25,308h6.25v1.25h-6.25V308ZM995,294.25h10v2.5h1.25v-2.5A1.25,1.25,0,0,0,1005,293H995a1.25,1.25,0,0,0-1.25,1.25v2.5H995v-2.5Zm1.25,11.25h7.5v1.25h-7.5V305.5Zm12.5-7.5h-17.5a1.25,1.25,0,0,0-1.25,1.25v7.5a1.25,1.25,0,0,0,1.25,1.25h2.5v3.75A1.25,1.25,0,0,0,995,313h10a1.25,1.25,0,0,0,1.25-1.25V308h2.5a1.25,1.25,0,0,0,1.25-1.25v-7.5A1.25,1.25,0,0,0,1008.75,298ZM1005,311.75H995v-7.5h10v7.5Zm2.5-10a1.25,1.25,0,1,1,1.25-1.25A1.25,1.25,0,0,1,1007.5,301.75Z" transform="translate(-990 -293)"/>
</svg>
