<svg xmlns="http://www.w3.org/2000/svg" width="20" height="20" viewBox="0 0 20 20">
  <metadata><?xpacket begin="﻿" id="W5M0MpCehiHzreSzNTczkc9d"?>
<x:xmpmeta xmlns:x="adobe:ns:meta/" x:xmptk="Adobe XMP Core 5.6-c142 79.160924, 2017/07/13-01:06:39        ">
   <rdf:RDF xmlns:rdf="http://www.w3.org/1999/02/22-rdf-syntax-ns#">
      <rdf:Description rdf:about=""/>
   </rdf:RDF>
</x:xmpmeta>
                                                                                                    
                                                                                                    
                                                                                                    
                                                                                                    
                                                                                                    
                                                                                                    
                                                                                                    
                                                                                                    
                                                                                                    
                                                                                                    
                                                                                                    
                                                                                                    
                                                                                                    
                                                                                                    
                                                                                                    
                                                                                                    
                                                                                                    
                                                                                                    
                                                                                                    
                                                                                                    
                           
<?xpacket end="w"?></metadata>
<defs>
    <style>
      .cls-1 {
        fill: #fff;
        fill-rule: evenodd;
      }
    </style>
  </defs>
  <path id="Forma_1" data-name="Forma 1" class="cls-1" d="M1039.74,298.52a3.012,3.012,0,0,0-.62-0.99l-3.65-3.646a2.972,2.972,0,0,0-.99-0.625,3.019,3.019,0,0,0-1.15-.26h-12.08a1.236,1.236,0,0,0-1.25,1.25v17.5a1.236,1.236,0,0,0,1.25,1.25h17.5a1.236,1.236,0,0,0,1.25-1.25V299.666A3.077,3.077,0,0,0,1039.74,298.52Zm-11.41-3.438a0.38,0.38,0,0,1,.13-0.293,0.4,0.4,0,0,1,.29-0.123h2.5a0.4,0.4,0,0,1,.29.123,0.38,0.38,0,0,1,.13.293v4.167a0.379,0.379,0,0,1-.13.293,0.393,0.393,0,0,1-.29.124h-2.5a0.393,0.393,0,0,1-.29-0.124,0.379,0.379,0,0,1-.13-0.293v-4.167Zm6.67,16.252h-10v-5h10v5Zm3.33,0h-1.66v-5.417a1.187,1.187,0,0,0-.37-0.886,1.2,1.2,0,0,0-.88-0.364h-10.84a1.2,1.2,0,0,0-.88.364,1.186,1.186,0,0,0-.37.886v5.417h-1.66V294.665h1.66v5.418a1.184,1.184,0,0,0,.37.885,1.2,1.2,0,0,0,.88.365h7.5a1.238,1.238,0,0,0,1.25-1.25v-5.418a1.436,1.436,0,0,1,.51.13,1.293,1.293,0,0,1,.44.261l3.66,3.659a1.242,1.242,0,0,1,.26.45,1.367,1.367,0,0,1,.13.5v11.668Z" transform="translate(-1020 -293)"/>
</svg>
