<svg xmlns="http://www.w3.org/2000/svg" width="18" height="20" viewBox="0 0 18 20">
  <metadata><?xpacket begin="﻿" id="W5M0MpCehiHzreSzNTczkc9d"?>
<x:xmpmeta xmlns:x="adobe:ns:meta/" x:xmptk="Adobe XMP Core 5.6-c142 79.160924, 2017/07/13-01:06:39        ">
   <rdf:RDF xmlns:rdf="http://www.w3.org/1999/02/22-rdf-syntax-ns#">
      <rdf:Description rdf:about=""/>
   </rdf:RDF>
</x:xmpmeta>
                                                                                                    
                                                                                                    
                                                                                                    
                                                                                                    
                                                                                                    
                                                                                                    
                                                                                                    
                                                                                                    
                                                                                                    
                                                                                                    
                                                                                                    
                                                                                                    
                                                                                                    
                                                                                                    
                                                                                                    
                                                                                                    
                                                                                                    
                                                                                                    
                                                                                                    
                                                                                                    
                           
<?xpacket end="w"?></metadata>
<defs>
    <style>
      .cls-1 {
        fill-rule: evenodd;
      }
    </style>
  </defs>
  <path class="cls-1" d="M16.626,11.845a0.938,0.938,0,0,0-1.315-.108l-2.736,2.292a2.928,2.928,0,0,1-1.88.684H7.459a0.886,0.886,0,0,1,0-1.773h3.106a0.886,0.886,0,0,0,0-1.773H5.409a2.759,2.759,0,0,0-2.395,1.395l-0.395.692a5.815,5.815,0,0,1-1,1.294L0,16.112,2.326,20l1.559-1.466a2.127,2.127,0,0,1,1.457-.579H9.455a4.06,4.06,0,0,0,2.64-.977l4.4-3.768A0.972,0.972,0,0,0,16.626,11.845ZM16.572,8.486a7.473,7.473,0,0,0-5.934-6.659,1.5,1.5,0,1,0-2.929,0A7.473,7.473,0,0,0,1.775,8.486H0.346V9.821H18V8.486H16.572Z"/>
</svg>
