<svg xmlns="http://www.w3.org/2000/svg" width="50" height="45" viewBox="0 0 50 45">
  <metadata><?xpacket begin="﻿" id="W5M0MpCehiHzreSzNTczkc9d"?>
<x:xmpmeta xmlns:x="adobe:ns:meta/" x:xmptk="Adobe XMP Core 5.6-c142 79.160924, 2017/07/13-01:06:39        ">
   <rdf:RDF xmlns:rdf="http://www.w3.org/1999/02/22-rdf-syntax-ns#">
      <rdf:Description rdf:about=""/>
   </rdf:RDF>
</x:xmpmeta>
                                                                                                    
                                                                                                    
                                                                                                    
                                                                                                    
                                                                                                    
                                                                                                    
                                                                                                    
                                                                                                    
                                                                                                    
                                                                                                    
                                                                                                    
                                                                                                    
                                                                                                    
                                                                                                    
                                                                                                    
                                                                                                    
                                                                                                    
                                                                                                    
                                                                                                    
                                                                                                    
                           
<?xpacket end="w"?></metadata>
<defs>
    <style>
      .cls-1 {
        fill: #01c0c8;
        fill-rule: evenodd;
      }
    </style>
  </defs>
  <path class="cls-1" d="M358.176,207.256a0.938,0.938,0,0,0-1.051.805l-1.989,15.683H347.8l-0.97-5.42a0.937,0.937,0,0,0-.927-0.766H322.154a0.937,0.937,0,0,0-.927.764l-0.983,5.421h-7.38l-1.989-15.682a0.941,0.941,0,0,0-1.868.231l2.092,16.5a0.937,0.937,0,0,0,.934.813h1.678l-1.979,11.7a0.931,0.931,0,0,0,.774,1.068,0.94,0.94,0,0,0,1.083-.763L315.62,225.6h4.289l-2.866,15.816a0.92,0.92,0,0,0,.377.917l0.023,0.016a8.5,8.5,0,0,0,9.331.3,14.123,14.123,0,0,0,11.938-.023,12.4,12.4,0,0,0,5.46,1.37c0.067,0,.134,0,0.2,0a12.394,12.394,0,0,0,5.762-1.423l0.339-.178a0.925,0.925,0,0,0,.483-0.98l-2.83-15.818h4.253l2.031,12.008a0.931,0.931,0,0,0,.6.725,0.952,0.952,0,0,0,.935-0.154,0.919,0.919,0,0,0,.326-0.876l-1.979-11.7h1.678a0.937,0.937,0,0,0,.934-0.813l2.092-16.5A0.93,0.93,0,0,0,358.176,207.256Zm-18.5,33.771V229.105a0.942,0.942,0,0,0-1.883,0V241a12.21,12.21,0,0,1-10.147,0v-8.288a0.942,0.942,0,0,0-1.883,0v8.37a6.6,6.6,0,0,1-6.757.057l3.937-21.726h22.167l3.876,21.66A10.391,10.391,0,0,1,339.675,241.027ZM327.2,216.362h12.552a0.935,0.935,0,0,0,.942-0.928,7.157,7.157,0,0,0-6.277-7.05v-0.867a0.941,0.941,0,0,0-1.882,0v0.867a7.157,7.157,0,0,0-6.277,7.05A0.935,0.935,0,0,0,327.2,216.362Zm6.276-6.186a5.323,5.323,0,0,1,5.251,4.33h-10.5A5.323,5.323,0,0,1,333.477,210.176Zm3.138-3.855a0.936,0.936,0,0,0,.942-0.928v-2.371a0.942,0.942,0,0,0-1.883,0v2.371A0.935,0.935,0,0,0,336.615,206.321Zm-4.289-1.753a0.935,0.935,0,0,0,.942-0.928v-3.711a0.942,0.942,0,0,0-1.883,0v3.711A0.935,0.935,0,0,0,332.326,204.568Zm-3.975,2.475a0.936,0.936,0,0,0,.942-0.928v-1.959a0.942,0.942,0,0,0-1.883,0v1.959A0.935,0.935,0,0,0,328.351,207.043Z" transform="translate(-309 -199)"/>
</svg>
